<?xml version="1.0" encoding="UTF-8" standalone="no"?>
<svg
   width="100%"
   height="100%"
   viewBox="0 0 22.343582 24.151514"
   version="1.1"
   id="play"
   xmlns="http://www.w3.org/2000/svg"
   ><defs
   id="defs1" />
       <path
   d="m 3.2838342,1.5388663e-6 c 2.196988,0 4.000202,1.6014599611337 5.902559,2.5731699611337 3.8378698,2.21576 7.8001728,4.26453 11.3591628,6.92097 1.10873,0.8217305 2.24859,2.2543905 1.61741,3.6995705 -0.72375,1.59564 -2.48435,2.29208 -3.88482,3.16764 -4.299643,2.402763 -8.4863308,5.013683 -12.8721358,7.255603 -1.195643,0.61102 -2.824145,0.86651 -3.87765,-0.16024 -0.93380398,-0.67986 -1.43862698,-1.67455 -1.52169498,-2.97507 0.0268,-5.973293 -0.05752,-11.9552235 0.04865,-17.9230535 0.04557,-1.42396 1.39818398,-1.91828996 2.41135598,-2.42199996 0.260617,-0.0915 0.541076,-0.1365900011337 0.817159,-0.1365900011337 z"
   fill="currentColor"
   id="path1-8" /></svg>
